Coordinates
version=1
nRows=14
nColumns=24
inDegrees=yes

Units are S.I. units (second, meters, Newtons, ...)
Angles are in degrees.

endheader
time	pelvis_tilt	pelvis_list	pelvis_rotation	pelvis_tx	pelvis_ty	pelvis_tz	hip_flexion_r	hip_adduction_r	hip_rotation_r	knee_angle_r	ankle_angle_r	subtalar_angle_r	mtp_angle_r	hip_flexion_l	hip_adduction_l	hip_rotation_l	knee_angle_l	ankle_angle_l	subtalar_angle_l	mtp_angle_l	lumbar_extension	lumbar_bending	lumbar_rotation
      4.98000000	      1.56712460	     -1.17723911	     -1.26686836	     -1.90211566	      0.90484829	      0.17786973	      5.33046594	      5.06814411	      0.94297326	    -15.45678468	     17.80450627	     -1.96963256	      0.00000000	     13.17965794	      1.72779309	      2.13151619	    -64.55851844	      6.20154725	     -7.42128829	      0.00000000	    -19.28581333	      2.19909423	      1.24490781
      4.99000000	      1.50103960	     -0.91603511	     -1.67288118	     -1.89184657	      0.90614127	      0.17864990	      4.23833390	      4.84183197	      1.48778892	    -14.57228582	     17.75934526	     -2.13797921	      0.00000000	     14.63646495	      1.78626262	      1.19202027	    -63.69220029	      7.36806346	     -7.11622587	      0.00000000	    -19.29130810	      1.75995770	      1.43926361
      5.00000000	      1.41913641	     -0.70936898	     -2.06127562	     -1.88168361	      0.90715325	      0.17937352	      3.20686950	      4.65280955	      1.96745669	    -13.75049832	     17.72238649	     -2.27894325	      0.00000000	     16.04463749	      1.74823799	      0.22534436	    -62.56287101	      8.42827254	     -6.73794862	      0.00000000	    -19.29236057	      1.38762893	      1.62214866
      5.01000000	      1.32601107	     -0.55729561	     -2.41947503	     -1.87161441	      0.90790187	      0.18003205	      2.22372825	      4.50387358	      2.36478846	    -12.98223011	     17.70789023	     -2.39269015	      0.00000000	     17.38837061	      1.63180574	     -0.72974130	    -61.16570864	      9.35641415	     -6.33876109	      0.00000000	    -19.29116824	      1.07869220	      1.81478055
      5.02000000	      1.20975114	     -0.42810758	     -2.74880965	     -1.86165868	      0.90838003	      0.18060448	      1.32453375	      4.35579291	      2.58638914	    -12.30492155	     17.79732132	     -2.33437444	      0.00000000	     18.67453606	      1.49048351	     -1.66350017	    -59.49201623	     10.01410279	     -6.16004995	      0.00000000	    -19.28676286	      0.79717470	      2.00697156
      5.03000000	      1.13234920	     -0.41470418	     -2.99498199	     -1.85170715	      0.90867517	      0.18110789	      0.34799206	      4.33768799	      2.87903734	    -11.58012245	     17.75903961	     -2.47675478	      0.00000000	     19.82365272	      1.21886055	     -2.52859205	    -57.57297007	     10.68896933	     -5.74841820	      0.00000000	    -19.31471196	      0.65551543	      2.14416626
      5.04000000	      1.00976426	     -0.41286337	     -3.21555373	     -1.84182169	      0.90868890	      0.18149811	     -0.51127292	      4.31037452	      2.96183664	    -10.97313636	     17.80212915	     -2.50396502	      0.00000000	     20.90982640	      0.95953108	     -3.35521411	    -55.35922342	     11.07993220	     -5.81491951	      0.00000000	    -19.30062792	      0.54506217	      2.28954006
      5.05000000	      0.99106593	     -0.47073007	     -3.35317465	     -1.83188477	      0.90865678	      0.18179879	     -1.57174952	      4.36138735	      3.32775502	    -10.23105540	     17.59053561	     -2.99574899	      0.00000000	     21.75054411	      0.67574077	     -4.08374366	    -52.85750864	     11.30552861	     -5.96870705	      0.00000000	    -19.40074304	      0.49973379	      2.37701851
      5.06000000	      0.85485355	     -0.56916654	     -3.49245288	     -1.82194508	      0.90828303	      0.18204517	     -2.41280648	      4.43179074	      3.35623405	     -9.66358863	     17.65904101	     -2.97342943	      0.00000000	     22.59452116	      0.33592326	     -4.83435411	    -50.10292312	     11.35076773	     -6.21385768	      0.00000000	    -19.34253807	      0.51240998	      2.48761391
      5.07000000	      0.81877464	     -0.70069932	     -3.55331891	     -1.81192220	      0.90790444	      0.18213236	     -3.44348615	      4.53904588	      3.62848733	     -8.97496576	     17.45839546	     -3.38035448	      0.00000000	     23.16804818	      0.03920330	     -5.44117505	    -47.03396519	     11.08608704	     -6.76458818	      0.00000000	    -19.39204725	      0.58074715	      2.50675989
      5.08000000	      0.78043418	     -0.87769610	     -3.65000881	     -1.80184065	      0.90738491	      0.18220693	     -4.40591235	      4.66349534	      3.63731667	     -8.41584530	     17.49346816	     -3.31241066	      0.00000000	     23.59092859	     -0.32226528	     -6.10015582	    -43.72221079	     10.84527093	     -7.07555138	      0.00000000	    -19.42182001	      0.69108414	      2.60821774
      5.09000000	      0.78004061	     -1.11776604	     -3.65338354	     -1.79166213	      0.90678966	      0.18206830	     -5.46575120	      4.85039366	      3.73023161	     -7.78206746	     17.34683553	     -3.42183624	      0.00000000	     23.81602875	     -0.64332630	     -6.51666014	    -40.14645215	     10.30184522	     -7.52289894	      0.00000000	    -19.48038147	      0.90719353	      2.57630543
      5.10000000	      0.79571374	     -1.41850091	     -3.71328544	     -1.78139698	      0.90608828	      0.18193355	     -6.52335828	      5.07857999	      3.83703897	     -7.20606256	     17.28796678	     -3.35529811	      0.00000000	     23.87289623	     -1.03882210	     -6.96001742	    -36.38022468	      9.77589757	     -7.60216042	      0.00000000	    -19.54540182	      1.17931163	      2.61448781
      5.11000000	      0.83177423	     -1.80466086	     -3.75797837	     -1.77103899	      0.90528073	      0.18171768	     -7.61164610	      5.38363859	      3.96377485	     -6.64032778	     17.13499982	     -3.30145161	      0.00000000	     23.77285307	     -1.46987109	     -7.23526395	    -32.45047693	      9.06724313	     -7.54123627	      0.00000000	    -19.62428928	      1.54609864	      2.62299989
